<?xml version="1.0" encoding="UTF-8"?>
<svg width="36px" height="36px" viewBox="0 0 36 36" version="1.1" xmlns="http://www.w3.org/2000/svg" xmlns:xlink="http://www.w3.org/1999/xlink">
    <title>fast-icon/hotspot_normal</title>
    <g id="fast-icon/hotspot_normal" stroke="none" stroke-width="1" fill="none" fill-rule="evenodd">
        <path d="M20,6 C24.418278,6 28,9.581722 28,14 C28,18.418278 24.418278,22 20,22 L12,22 C12,21.271376 12.1948152,20.5882535 12.5351985,19.9998796 L20,20 C23.3137085,20 26,17.3137085 26,14 C26,10.7616031 23.4344251,8.12242824 20.2249383,8.00413847 L20,8 L11,8 C7.6862915,8 5,10.6862915 5,14 C5,15.646773 5.66342525,17.1385947 6.7375857,18.2227751 C6.46224963,18.8980139 6.25810347,19.6108737 6.13528206,20.3512074 C4.22913292,18.8894242 3,16.5882518 3,14 C3,9.581722 6.581722,6 11,6 L20,6 Z M10.3544501,19.9656774 C10.1576337,20.5098073 10.0378045,21.0909335 10.0075843,21.6957054 L10.001,21.938 L9.75036083,21.9029731 C9.14884029,21.8086177 8.56955773,21.6472344 8.02039662,21.4267065 C8.06976063,20.7285077 8.2085279,20.0561013 8.42523032,19.4197498 C9.0215533,19.7046067 9.67083155,19.8925492 10.3544501,19.9656774 Z" id="形状结合" fill="#000000" fill-rule="nonzero"></path>
        <path d="M24,14 C24,14.7290322 23.8049665,15.4125119 23.4642293,16.0011092 L16,16 C12.6862915,16 10,18.6862915 10,22 C10,25.2383969 12.5655749,27.8775718 15.7750617,27.9958615 L16,28 L25,28 C28.3137085,28 31,25.3137085 31,22 C31,20.353227 30.3365747,18.8614053 29.2624143,17.7772249 C29.5378357,17.1016761 29.7419088,16.3890098 29.8647027,15.6488843 L30.0198748,15.7706132 C31.8374047,17.2370962 33,19.4827787 33,22 C33,26.418278 29.418278,30 25,30 L16,30 C11.581722,30 8,26.418278 8,22 C8,17.581722 11.581722,14 16,14 L24,14 Z M25.999,14.033 L25.9999513,14.0618877 C26.6909021,14.1480437 27.3544892,14.3223132 27.9791135,14.5730968 C27.9303428,15.2708181 27.7916432,15.9431956 27.5750157,16.5795277 C26.9791689,16.2956024 26.3295487,16.1074915 25.6455499,16.0343226 C25.8423663,15.4901927 25.9621955,14.9090665 25.9924157,14.3042946 L25.999,14.033 Z" id="形状结合" fill="#000000" fill-rule="nonzero"></path>
    </g>
</svg>