<?xml version="1.0" encoding="UTF-8"?>
<svg width="36px" height="36px" viewBox="0 0 36 36" version="1.1" xmlns="http://www.w3.org/2000/svg" xmlns:xlink="http://www.w3.org/1999/xlink">
    <title>fast-icon/lock_normal</title>
    <g id="fast-icon/lock_normal" stroke="none" stroke-width="1" fill="none" fill-rule="evenodd">
        <g id="编组-2" transform="translate(6.000000, 4.000000)" fill-rule="nonzero">
            <path d="M22,12 C23.1045695,12 24,12.8954305 24,14 L24,25 C24,26.1045695 23.1045695,27 22,27 L2,27 C0.8954305,27 1.3527075e-16,26.1045695 0,25 L0,14 C-1.3527075e-16,12.8954305 0.8954305,12 2,12 L22,12 Z M12.0420274,16 L11.9579726,16 C10.8766142,16 10,16.8766142 10,17.9579726 L10,17.9579726 L10,21.0420274 C10,22.1233858 10.8766142,23 11.9579726,23 L11.9579726,23 L12.0420274,23 C13.1233858,23 14,22.1233858 14,21.0420274 L14,21.0420274 L14,17.9579726 C14,16.8766142 13.1233858,16 12.0420274,16 L12.0420274,16 Z" id="形状结合" fill="#000000"></path>
            <path d="M12,1 C13.3807119,1 14.6307119,1.55964406 15.5355339,2.46446609 C16.4403559,3.36928813 17,4.61928813 17,6 L17,6 L17,13 L7,13 L7,6 C7,4.61928813 7.55964406,3.36928813 8.46446609,2.46446609 C9.36928813,1.55964406 10.6192881,1 12,1 Z" id="矩形" stroke="#000000" stroke-width="2"></path>
        </g>
    </g>
</svg>