<?xml version="1.0" encoding="UTF-8"?>
<svg width="24px" height="24px" viewBox="0 0 24 24" version="1.1" xmlns="http://www.w3.org/2000/svg" xmlns:xlink="http://www.w3.org/1999/xlink">
    <title>icon_music_next</title>
    <g id="icon_music_next" stroke="none" stroke-width="1" fill="none" fill-rule="evenodd">
        <path d="M8,7 L8,18 L7,18 L7,7 L8,7 Z M15.4414739,7.56354375 C16.8608084,6.69617266 18,7.34182897 18,8.99705889 L18,8.99705889 L18,15.785998 C18,17.4392064 16.8545088,18.0830345 15.4414739,17.2195131 L15.4414739,17.2195131 L10.0996614,13.9550722 C8.68032694,13.0877011 8.68662648,11.691506 10.0996614,10.8279847 L10.0996614,10.8279847 Z M16.9967326,8.79118638 C16.9953781,8.2314135 16.6137405,8.01910433 16.1442946,8.30598792 L16.1442946,8.30598792 L10.306704,11.8734044 C9.84085066,12.1580925 9.83838497,12.6259731 10.3092209,12.9135412 L10.3092209,12.9135412 L16.1640973,16.4894693 C16.63133,16.7748367 17.0155328,16.5603616 17.0141901,16.0055103 L17.0141901,16.0055103 Z" id="Combined-Shape" fill="#000000" fill-rule="nonzero" transform="translate(12.500000, 12.500000) scale(-1, 1) translate(-12.500000, -12.500000) "></path>
    </g>
</svg>