<?xml version="1.0" encoding="UTF-8"?>
<svg width="36px" height="36px" viewBox="0 0 36 36" version="1.1" xmlns="http://www.w3.org/2000/svg" xmlns:xlink="http://www.w3.org/1999/xlink">
    <title>fast-icon/rotation_normal</title>
    <g id="fast-icon/rotation_normal" stroke="none" stroke-width="1" fill="none" fill-rule="evenodd">
        <g id="编组" transform="translate(18.000000, 18.000000) rotate(-30.000000) translate(-18.000000, -18.000000) translate(4.500000, 7.500000)" fill="#000000">
            <path d="M17.947851,0.274204387 C19.0524205,0.274204387 19.947851,1.16963489 19.947851,2.27420439 L19.947851,18.2742044 C19.947851,19.3787739 19.0524205,20.2742044 17.947851,20.2742044 L8.94785103,20.2742044 C7.84328153,20.2742044 6.94785103,19.3787739 6.94785103,18.2742044 L6.94785103,2.27420439 C6.94785103,1.16963489 7.84328153,0.274204387 8.94785103,0.274204387 L17.947851,0.274204387 Z M14.447851,18.2742044 L12.447851,18.2742044 C12.1717087,18.2742044 11.947851,18.498062 11.947851,18.7742044 C11.947851,19.0196643 12.1247262,19.2238128 12.3579754,19.2661487 L12.447851,19.2742044 L14.447851,19.2742044 C14.7239934,19.2742044 14.947851,19.0503468 14.947851,18.7742044 C14.947851,18.498062 14.7239934,18.2742044 14.447851,18.2742044 Z M16.947851,2.27420439 L9.94785103,2.27420439 C9.39556628,2.27420439 8.94785103,2.72191964 8.94785103,3.27420439 L8.94785103,16.2742044 C8.94785103,16.8264891 9.39556628,17.2742044 9.94785103,17.2742044 L16.947851,17.2742044 C17.5001358,17.2742044 17.947851,16.8264891 17.947851,16.2742044 L17.947851,3.27420439 C17.947851,2.72191964 17.5001358,2.27420439 16.947851,2.27420439 Z M15.947,4.274 L15.947,15.274 L10.947,15.274 L10.947,4.274 L15.947,4.274 Z" id="形状结合"></path>
            <path d="M21.7564071,0.886305343 L21.864535,0.896637883 L25.6101475,1.47382446 C26.1176991,1.55203649 26.4657475,2.02689171 26.3875355,2.53444328 C26.3149101,3.00574117 25.900281,3.33950832 25.4350447,3.32216383 L25.3269167,3.31183129 L23.943555,3.09782612 C25.4359336,5.28897836 26.1292533,7.77749685 26.0115711,10.5369794 C25.8591412,14.1112493 24.5188591,17.0484369 22.0056303,19.2908365 C21.622442,19.6327319 21.0346456,19.5992574 20.6927502,19.2160691 C20.3508548,18.8328808 20.3843293,18.2450843 20.7675176,17.9031889 C22.8984281,16.0019085 24.0221399,13.5393279 24.1535587,10.4577418 C24.2844618,7.38824711 23.2616079,4.75848631 21.0587792,2.51050056 C20.8742837,2.32222293 20.7860645,2.07547226 20.7935024,1.8312741 C20.7922283,1.77969412 20.7957472,1.72703836 20.8039162,1.67402589 C20.8765417,1.202728 21.2911707,0.868960854 21.7564071,0.886305343 Z" id="形状结合" fill-rule="nonzero"></path>
            <path d="M1.29969309,0.886305343 L1.40782106,0.896637883 L5.15343352,1.47382446 C5.66098509,1.55203649 6.00903356,2.02689171 5.93082153,2.53444328 C5.85819607,3.00574117 5.44356705,3.33950832 4.97833067,3.32216383 L4.8702027,3.31183129 L3.48684104,3.09782612 C4.97921957,5.28897836 5.6725393,7.77749685 5.55485714,10.5369794 C5.40242718,14.1112493 4.0621451,17.0484369 1.54891632,19.2908365 C1.16572802,19.6327319 0.577931567,19.5992574 0.23603619,19.2160691 C-0.105859187,18.8328808 -0.0723846596,18.2450843 0.310803639,17.9031889 C2.44171408,16.0019085 3.56542596,13.5393279 3.6968447,10.4577418 C3.82774778,7.38824711 2.80489389,4.75848631 0.602065235,2.51050056 C0.417569688,2.32222293 0.329350473,2.07547226 0.336788437,1.8312741 C0.335514327,1.77969412 0.339033184,1.72703836 0.34720223,1.67402589 C0.419827687,1.202728 0.834456712,0.868960854 1.29969309,0.886305343 Z" id="形状结合" fill-rule="nonzero" transform="translate(2.970900, 10.206266) scale(-1, -1) translate(-2.970900, -10.206266) "></path>
        </g>
    </g>
</svg>