<svg xmlns="http://www.w3.org/2000/svg" width="24" height="24" viewBox="0 0 24 24">
  <path fill-rule="evenodd" d="M24,12 C30.6165714,12 36,17.3834286 36,24 C36,30.6165714 30.6165714,36 24,36 C17.3828571,36 12,30.6165714 12,24 C12,17.3834286 17.3828571,12 24,12 Z M28.3887,18.1439999 C28.070584,17.9054129 27.619287,17.9698839 27.3807,18.2879999 C27.142113,18.6061159 27.206584,19.0574129 27.5247,19.2959999 C28.9968825,20.4001368 29.88,22.127583 29.88,24.0026399 C29.88,27.2501749 27.247535,29.8826399 24,29.8826399 C20.752465,29.8826399 18.12,27.2501749 18.12,24.0026399 C18.12,22.1288402 19.0018842,20.4025886 20.4723412,19.2983838 C20.7903158,19.0596083 20.8545194,18.6082732 20.6157439,18.2902986 C20.3769684,17.9723241 19.9256333,17.9081205 19.6076588,18.146896 C17.7787506,19.5202712 16.68,21.6710297 16.68,24.0026399 C16.68,28.0454649 19.957175,31.3226399 24,31.3226399 C28.042825,31.3226399 31.32,28.0454649 31.32,24.0026399 C31.32,21.6694773 30.219737,19.5172776 28.3887,18.1439999 Z M24.0000002,15.6 C23.1600002,15.6 23.1600002,16.4399998 23.1600002,16.4399998 L23.1602053,23.1694338 C23.1632815,23.261719 23.2125002,24 24.0000002,24 C24.8400002,24 24.8400002,23.1600002 24.8400002,23.1600002 L24.8400002,23.1600002 L24.8400002,16.4399998 C24.8400002,16.4399998 24.8400002,15.6 24.0000002,15.6 Z" transform="translate(-12 -12)"/>
</svg>
