<?xml version="1.0" encoding="UTF-8"?>
<svg width="36px" height="36px" viewBox="0 0 36 36" version="1.1" xmlns="http://www.w3.org/2000/svg" xmlns:xlink="http://www.w3.org/1999/xlink">
    <title>fast-icon/Wi-Fi_normal</title>
    <defs>
        <path d="M16,10.4090712 C19.9470368,10.4090712 23.300631,12.9499013 24.5143962,16.4851753 L22.8811999,18.1180859 C22.2753997,14.8687932 19.4249493,12.4090712 16,12.4090712 C12.5750507,12.4090712 9.72460034,14.8687932 9.1188001,18.1180859 L7.48560383,16.4851753 C8.69936902,12.9499013 12.0529632,10.4090712 16,10.4090712 Z M16,5.40907118 C21.3034962,5.40907118 25.9182206,8.35805424 28.2938571,12.7057045 L26.8087289,14.1901272 C24.8674376,10.1769912 20.75696,7.40907118 16,7.40907118 C11.24304,7.40907118 7.13256244,10.1769912 5.19127111,14.1901272 L3.70614288,12.7057045 C6.08177944,8.35805424 10.6965038,5.40907118 16,5.40907118 Z M16,0.409071181 C22.6766957,0.409071181 28.5490351,3.85293011 31.9375683,9.06119819 L30.4884426,10.5115174 C27.4967014,5.65024771 22.1268593,2.40907118 16,2.40907118 C9.87314065,2.40907118 4.50329864,5.65024771 1.51155738,10.5115174 L0.0624316722,9.06119819 C3.45096491,3.85293011 9.32330428,0.409071181 16,0.409071181 Z" id="path-1"></path>
    </defs>
    <g id="fast-icon/Wi-Fi_normal" stroke="none" stroke-width="1" fill="none" fill-rule="evenodd">
        <g id="编组" transform="translate(2.000000, 6.590929)">
            <mask id="mask-2" fill="white">
                <use xlink:href="#path-1"></use>
            </mask>
            <use id="形状结合" fill="#000000" xlink:href="#path-1"></use>
            <circle id="椭圆形" fill="#000000" cx="16" cy="19.4090712" r="4"></circle>
        </g>
    </g>
</svg>